<?xml version="1.0" encoding="UTF-8" standalone="no"?>
<!-- Created with Inkscape (http://www.inkscape.org/) -->

<svg
   xmlns:dc="http://purl.org/dc/elements/1.1/"
   xmlns:cc="http://creativecommons.org/ns#"
   xmlns:rdf="http://www.w3.org/1999/02/22-rdf-syntax-ns#"
   xmlns:svg="http://www.w3.org/2000/svg"
   xmlns="http://www.w3.org/2000/svg"
   xmlns:sodipodi="http://sodipodi.sourceforge.net/DTD/sodipodi-0.dtd"
   xmlns:inkscape="http://www.inkscape.org/namespaces/inkscape"
   width="500"
   height="500"
   id="svg2"
   sodipodi:version="0.32"
   inkscape:version="0.47 r22583"
   sodipodi:docname="phxandroid-round-logo.svg"
   inkscape:output_extension="org.inkscape.output.svg.inkscape"
   inkscape:export-filename="/Users/joakim/Code/phxandroid/logos/phxandroid-round-logo-transparent.png"
   inkscape:export-xdpi="90"
   inkscape:export-ydpi="90"
   version="1.0">
  <defs
     id="defs4">
    <inkscape:perspective
       sodipodi:type="inkscape:persp3d"
       inkscape:vp_x="0 : 526.18109 : 1"
       inkscape:vp_y="0 : 1000 : 0"
       inkscape:vp_z="744.09448 : 526.18109 : 1"
       inkscape:persp3d-origin="372.04724 : 350.78739 : 1"
       id="perspective10" />
    <inkscape:perspective
       id="perspective2390"
       inkscape:persp3d-origin="372.04724 : 350.78739 : 1"
       inkscape:vp_z="744.09448 : 526.18109 : 1"
       inkscape:vp_y="0 : 1000 : 0"
       inkscape:vp_x="0 : 526.18109 : 1"
       sodipodi:type="inkscape:persp3d" />
    <inkscape:perspective
       id="perspective3217"
       inkscape:persp3d-origin="250 : 166.66667 : 1"
       inkscape:vp_z="500 : 250 : 1"
       inkscape:vp_y="0 : 1000 : 0"
       inkscape:vp_x="0 : 250 : 1"
       sodipodi:type="inkscape:persp3d" />
  </defs>
  <sodipodi:namedview
     id="base"
     pagecolor="#ffffff"
     bordercolor="#666666"
     borderopacity="1.0"
     gridtolerance="10000"
     guidetolerance="10"
     objecttolerance="10"
     inkscape:pageopacity="0.0"
     inkscape:pageshadow="2"
     inkscape:zoom="1.806"
     inkscape:cx="250"
     inkscape:cy="250"
     inkscape:document-units="px"
     inkscape:current-layer="layer1"
     showgrid="false"
     inkscape:window-width="1600"
     inkscape:window-height="1151"
     inkscape:window-x="9"
     inkscape:window-y="2"
     inkscape:window-maximized="0" />
  <metadata
     id="metadata7">
    <rdf:RDF>
      <cc:Work
         rdf:about="">
        <dc:format>image/svg+xml</dc:format>
        <dc:type
           rdf:resource="http://purl.org/dc/dcmitype/StillImage" />
        <dc:title></dc:title>
      </cc:Work>
    </rdf:RDF>
  </metadata>
  <g
     inkscape:label="Background"
     inkscape:groupmode="layer"
     id="layer1"
     style="display:inline">
    <rect
       style="fill:#30587c;stroke:none;display:inline"
       y="6.3934968e-14"
       x="0"
       width="500"
       height="500"
       id="rect3154" />
  </g>
  <g
     inkscape:groupmode="layer"
     id="layer2"
     inkscape:label="Phoenix"
     style="display:inline">
    <path
       id="path2440"
       d="M 213.375,46.0625 C 151.46289,62.476146 113.52584,102.72658 107.8125,144.90625 C 102.09917,187.08591 128.9788,228.1012 183.96875,235.15625 C 145.50395,215.24478 127.26644,175.18609 131.4375,136.5 C 135.60855,97.813893 162.20561,60.50042 213.375,46.0625 z M 304.65625,49.90625 C 355.82564,64.344171 424.52884,131.71248 417.75,217.0625 C 411.88133,183.0467 410.39932,147.78708 355.8125,96.4375 C 408.24617,180.99088 378.5874,271.31731 299.78125,311.625 C 299.26324,312.32381 298.9881,312.49355 299.03125,312 C 299.28154,311.87349 299.53195,311.75251 299.78125,311.625 C 305.12664,304.41359 337.38033,238.45101 335.28125,211.1875 C 334.37199,199.37788 348.71006,171.05503 372.0625,194.1875 C 361.06025,180.73943 337.12167,159.05219 315.0625,139.78125 L 341.09375,121.34375 C 343.03415,120.03138 343.85424,117.59066 343.09375,115.375 C 342.33325,113.15935 340.18109,111.71911 337.84375,111.875 C 336.85009,111.9374 335.8954,112.28456 335.09375,112.875 L 307.03125,132.78125 C 302.54185,128.89412 298.41899,125.34803 294.375,121.875 L 305.46875,91.9375 C 306.11358,90.287749 305.85696,88.43059 304.8125,87 C 303.76805,85.56941 302.08027,84.763342 300.3125,84.875 C 298.22112,84.99709 296.40867,86.365674 295.71875,88.34375 L 286,114.65625 C 283.3444,112.37549 280.41849,109.88715 278.3125,108.0625 C 269.1016,100.08209 251.64187,87.007476 230.375,121.125 C 198.04898,115.54405 170.19791,141.93241 171.40625,156.0625 C 194.60396,148.7762 191.96682,144.88913 210.875,153.28125 C 223.99531,159.1045 238.2188,167.39173 240.5625,191.46875 C 244.67739,233.74128 205.20536,244.58555 189.84375,243.34375 C 165.59274,241.38335 72.718855,231.59337 98.78125,117.0625 C 57.578741,212.52939 99.349386,287.07606 143.5625,331.71875 C 105.66195,309.4428 49.045937,248.51473 64.875,151.4375 C 25.926723,234.52981 33.800574,346.22608 154.1875,409.40625 C 199.18624,433.02201 291.93544,435.32636 356.40625,379.1875 C 316.99028,425.87195 285.57559,445.90359 214.9375,450.9375 C 302.7396,468.49157 448.44918,409.76974 455.625,254.46875 C 461.05196,137.01701 366.56837,66.319896 304.65625,49.90625 z"
       style="fill:#97c03d;fill-opacity:1;fill-rule:evenodd;stroke:#ffffff;stroke-width:25;stroke-linecap:butt;stroke-linejoin:round;stroke-miterlimit:4;stroke-dasharray:none;stroke-opacity:1" />
    <path
       style="fill:#97c03d;fill-opacity:1;fill-rule:evenodd;stroke:none;stroke-width:1px;stroke-linecap:butt;stroke-linejoin:miter;stroke-opacity:1"
       d="M 213.375,46.0625 C 151.46289,62.476146 113.52584,102.72658 107.8125,144.90625 C 102.09917,187.08591 128.9788,228.1012 183.96875,235.15625 C 145.50395,215.24478 127.26644,175.18609 131.4375,136.5 C 135.60855,97.813893 162.20561,60.50042 213.375,46.0625 z M 304.65625,49.90625 C 355.82564,64.344171 424.52884,131.71248 417.75,217.0625 C 411.88133,183.0467 410.39932,147.78708 355.8125,96.4375 C 408.24617,180.99088 378.5874,271.31731 299.78125,311.625 C 299.26324,312.32381 298.9881,312.49355 299.03125,312 C 299.28154,311.87349 299.53195,311.75251 299.78125,311.625 C 305.12664,304.41359 337.38033,238.45101 335.28125,211.1875 C 334.37199,199.37788 348.71006,171.05503 372.0625,194.1875 C 361.06025,180.73943 337.12167,159.05219 315.0625,139.78125 L 341.09375,121.34375 C 343.03415,120.03138 343.85424,117.59066 343.09375,115.375 C 342.33325,113.15935 340.18109,111.71911 337.84375,111.875 C 336.85009,111.9374 335.8954,112.28456 335.09375,112.875 L 307.03125,132.78125 C 302.54185,128.89412 298.41899,125.34803 294.375,121.875 L 305.46875,91.9375 C 306.11358,90.287749 305.85696,88.43059 304.8125,87 C 303.76805,85.56941 302.08027,84.763342 300.3125,84.875 C 298.22112,84.99709 296.40867,86.365674 295.71875,88.34375 L 286,114.65625 C 283.3444,112.37549 280.41849,109.88715 278.3125,108.0625 C 269.1016,100.08209 251.64187,87.007476 230.375,121.125 C 198.04898,115.54405 170.19791,141.93241 171.40625,156.0625 C 194.60396,148.7762 191.96682,144.88913 210.875,153.28125 C 223.99531,159.1045 238.2188,167.39173 240.5625,191.46875 C 244.67739,233.74128 205.20536,244.58555 189.84375,243.34375 C 165.59274,241.38335 72.718855,231.59337 98.78125,117.0625 C 57.578741,212.52939 99.349386,287.07606 143.5625,331.71875 C 105.66195,309.4428 49.045937,248.51473 64.875,151.4375 C 25.926723,234.52981 33.800574,346.22608 154.1875,409.40625 C 199.18624,433.02201 291.93544,435.32636 356.40625,379.1875 C 316.99028,425.87195 285.57559,445.90359 214.9375,450.9375 C 302.7396,468.49157 448.44918,409.76974 455.625,254.46875 C 461.05196,137.01701 366.56837,66.319896 304.65625,49.90625 z"
       id="path2397" />
    <circle
       style="fill:#ffffff;stroke-linecap:round"
       sodipodi:ry="9"
       sodipodi:rx="9"
       sodipodi:cy="99"
       sodipodi:cx="286"
       cx="286"
       cy="99"
       r="9"
       id="circle3180"
       transform="matrix(1.0694248,0,0,1.0694248,-47.025068,26.181005)" />
    <rect
       style="fill:#ffffff;fill-opacity:1;stroke:none;stroke-opacity:1"
       id="rect3309"
       width="109.04794"
       height="13.921016"
       x="233.86546"
       y="199.18364" />
  </g>
</svg>
