<?xml version="1.0" encoding="UTF-8" standalone="no"?>
<!-- Created with Inkscape (http://www.inkscape.org/) -->

<svg
   xmlns:dc="http://purl.org/dc/elements/1.1/"
   xmlns:cc="http://creativecommons.org/ns#"
   xmlns:rdf="http://www.w3.org/1999/02/22-rdf-syntax-ns#"
   xmlns:svg="http://www.w3.org/2000/svg"
   xmlns="http://www.w3.org/2000/svg"
   xmlns:sodipodi="http://sodipodi.sourceforge.net/DTD/sodipodi-0.dtd"
   xmlns:inkscape="http://www.inkscape.org/namespaces/inkscape"
   width="500"
   height="500"
   id="svg2"
   sodipodi:version="0.32"
   inkscape:version="0.47 r22583"
   sodipodi:docname="phxandroid-saguaro-logo.svg"
   inkscape:output_extension="org.inkscape.output.svg.inkscape"
   version="1.0"
   inkscape:export-filename="/Users/joakim/Code/phxandroid/logos/phxandroid-saguaro-logo-transparent.png"
   inkscape:export-xdpi="90"
   inkscape:export-ydpi="90">
  <defs
     id="defs4">
    <inkscape:perspective
       sodipodi:type="inkscape:persp3d"
       inkscape:vp_x="0 : 526.18109 : 1"
       inkscape:vp_y="0 : 1000 : 0"
       inkscape:vp_z="744.09448 : 526.18109 : 1"
       inkscape:persp3d-origin="372.04724 : 350.78739 : 1"
       id="perspective10" />
    <inkscape:perspective
       id="perspective2448"
       inkscape:persp3d-origin="250 : 166.66667 : 1"
       inkscape:vp_z="500 : 250 : 1"
       inkscape:vp_y="0 : 1000 : 0"
       inkscape:vp_x="0 : 250 : 1"
       sodipodi:type="inkscape:persp3d" />
  </defs>
  <sodipodi:namedview
     id="base"
     pagecolor="#ffffff"
     bordercolor="#666666"
     borderopacity="1.0"
     gridtolerance="10000"
     guidetolerance="10"
     objecttolerance="10"
     inkscape:pageopacity="0.0"
     inkscape:pageshadow="2"
     inkscape:zoom="1.806"
     inkscape:cx="176.63344"
     inkscape:cy="250"
     inkscape:document-units="px"
     inkscape:current-layer="layer2"
     showgrid="false"
     inkscape:window-width="1600"
     inkscape:window-height="1151"
     inkscape:window-x="24"
     inkscape:window-y="3"
     inkscape:window-maximized="0" />
  <metadata
     id="metadata7">
    <rdf:RDF>
      <cc:Work
         rdf:about="">
        <dc:format>image/svg+xml</dc:format>
        <dc:type
           rdf:resource="http://purl.org/dc/dcmitype/StillImage" />
        <dc:title></dc:title>
      </cc:Work>
    </rdf:RDF>
  </metadata>
  <g
     inkscape:groupmode="layer"
     id="layer2"
     inkscape:label="Background"
     sodipodi:insensitive="true"
     style="display:none">
    <rect
       style="fill:#30587c;stroke:none"
       y="0"
       x="0"
       width="500"
       height="500"
       id="rect2385" />
  </g>
  <g
     inkscape:label="Layer 1"
     inkscape:groupmode="layer"
     id="layer1">
    <g
       id="g3043"
       transform="translate(-113.2465,5.0362142)">
      <path
         style="fill:#97c03d;stroke:#ffffff;stroke-width:15;stroke-linecap:round;stroke-miterlimit:4;stroke-opacity:1;stroke-dasharray:none"
         d="m 338.87835,36.1875 c -0.95274,0.07843 -1.81251,0.591459 -2.3125,1.40625 -0.49998,0.814791 -0.58033,1.833803 -0.21875,2.71875 l 8.21875,21.25 c -10.0114,9.039565 -16.65625,25.046254 -16.65625,43.28125 0,28.19849 15.91091,51.06249 35.53125,51.0625 19.62034,0 35.5625,-22.86401 35.5625,-51.0625 0,-18.234995 -6.6761,-34.241685 -16.6875,-43.28125 l 8.21875,-21.25 c 0.3834,-0.945602 0.27519,-2.009616 -0.3125,-2.84375 -0.58768,-0.834133 -1.57428,-1.324033 -2.59375,-1.28125 -1.20353,0.04783 -2.26179,0.810762 -2.6875,1.9375 l -7.59375,19.6875 c -4.2679,-2.609115 -8.9782,-4.0625 -13.90625,-4.0625 -4.92775,0 -9.60731,1.453687 -13.875,4.0625 l -7.625,-19.6875 c -0.47145,-1.25903 -1.72287,-2.050746 -3.0625,-1.9375 z"
         id="path3491" />
      <path
         id="ellipse2403"
         d="m 338.87835,36.1875 c -0.95274,0.07843 -1.81251,0.591459 -2.3125,1.40625 -0.49998,0.814791 -0.58033,1.833803 -0.21875,2.71875 l 8.21875,21.25 c -10.0114,9.039565 -16.65625,25.046254 -16.65625,43.28125 0,28.19849 15.91091,51.06249 35.53125,51.0625 19.62034,0 35.5625,-22.86401 35.5625,-51.0625 0,-18.234995 -6.6761,-34.241685 -16.6875,-43.28125 l 8.21875,-21.25 c 0.3834,-0.945602 0.27519,-2.009616 -0.3125,-2.84375 -0.58768,-0.834133 -1.57428,-1.324033 -2.59375,-1.28125 -1.20353,0.04783 -2.26179,0.810762 -2.6875,1.9375 l -7.59375,19.6875 c -4.2679,-2.609115 -8.9782,-4.0625 -13.90625,-4.0625 -4.92775,0 -9.60731,1.453687 -13.875,4.0625 l -7.625,-19.6875 c -0.47145,-1.25903 -1.72287,-2.050746 -3.0625,-1.9375 z"
         style="fill:#97c03d;stroke:none" />
      <path
         sodipodi:nodetypes="ccccccc"
         style="fill:#97c03d;stroke:#ffffff;stroke-width:15;stroke-linecap:round;stroke-miterlimit:4;stroke-opacity:1;stroke-dasharray:none"
         d="m 327.94085,109.90625 0,287.1875 c 0,28.7352 -1.48997,52.56946 9.875,52.03125 l 51.25,0 c 11.90319,0.5382 9.875,-23.29604 9.875,-52.03125 l 0,-287.1875 -71,0 z"
         id="path3496" />
      <path
         id="path3509"
         d="m 447.0888,109.1914 c 12.54092,0.17423 22.54914,10.49032 22.375,23.03124 l 0,97.125 c 7.4e-4,0.0522 -3.8e-4,0.10409 0,0.15625 3.1e-4,0.0526 0,0.10368 0,0.15625 1.7e-4,0.40666 -0.01,0.81546 -0.0312,1.21875 -0.16183,3.54974 -1.03172,7.07258 -2.625,10.25 -3.54683,7.07327 -10.08943,11.36582 -17.125,11.25 l -2.90625,0 -80.53125,0 c -5.26799,0.0851 -10.36836,-2.32005 -14.09375,-6.65625 -3.72539,-4.33621 -5.76065,-10.24327 -5.6875,-16.375 0.14968,-12.54091 9.00687,-22.54914 19.78125,-22.375 l 57.8125,0 0,-74.75 c -0.0851,-6.13172 2.32005,-12.0388 6.65625,-16.375 4.3362,-4.33619 10.24327,-6.74138 16.375,-6.65624 z"
         style="fill:#97c03d;fill-opacity:1;stroke:#ffffff;stroke-width:15;stroke-linecap:round;stroke-miterlimit:4;stroke-opacity:1;stroke-dasharray:none" />
      <path
         style="fill:#97c03d;fill-opacity:1;stroke:#ffffff;stroke-width:15;stroke-linecap:round;stroke-miterlimit:4;stroke-opacity:1;stroke-dasharray:none"
         d="m 279.4042,157.90489 c -12.54092,0.17423 -22.54914,10.49033 -22.375,23.03125 l 0,97.125 c -7.4e-4,0.0522 3.8e-4,0.10409 0,0.15625 -3.1e-4,0.0526 0,0.10368 0,0.15625 -1.7e-4,0.40666 0.01,0.81546 0.0312,1.21875 0.16183,3.54974 1.03172,7.07258 2.625,10.25 3.54683,7.07327 10.08943,11.36582 17.125,11.25 l 2.90625,0 80.53125,0 c 5.26799,0.0851 10.36836,-2.32005 14.09375,-6.65625 3.72539,-4.33621 5.76065,-10.24327 5.6875,-16.375 -0.14968,-12.54091 -9.00687,-22.54914 -19.78125,-22.375 l -57.8125,0 0,-74.75 c 0.0851,-6.13172 -2.32005,-12.0388 -6.65625,-16.375 -4.3362,-4.3362 -10.24327,-6.74139 -16.375,-6.65625 z"
         id="path3511" />
      <path
         sodipodi:nodetypes="ccccccc"
         id="path2405"
         d="m 327.94085,109.90625 0,287.1875 c 0,28.7352 -1.48997,52.56946 9.875,52.03125 l 51.25,0 c 11.90319,0.5382 9.875,-23.29604 9.875,-52.03125 l 0,-287.1875 -71,0 z"
         style="fill:#97c03d;stroke:none" />
      <path
         id="path2423"
         d="m 279.4042,157.90489 c -12.54092,0.17423 -22.54914,10.49033 -22.375,23.03125 l 0,97.125 c -7.4e-4,0.0522 3.8e-4,0.10409 0,0.15625 -3.1e-4,0.0526 0,0.10368 0,0.15625 -1.7e-4,0.40666 0.01,0.81546 0.0312,1.21875 0.16183,3.54974 1.03172,7.07258 2.625,10.25 3.54683,7.07327 10.08943,11.36582 17.125,11.25 l 2.90625,0 80.53125,0 c 5.26799,0.0851 10.36836,-2.32005 14.09375,-6.65625 3.72539,-4.33621 5.76065,-10.24327 5.6875,-16.375 -0.14968,-12.54091 -9.00687,-22.54914 -19.78125,-22.375 l -57.8125,0 0,-74.75 c 0.0851,-6.13172 -2.32005,-12.0388 -6.65625,-16.375 -4.3362,-4.3362 -10.24327,-6.74139 -16.375,-6.65625 z"
         style="fill:#97c03d;fill-opacity:1;stroke:none" />
      <circle
         style="fill:#ffffff;stroke-linecap:round"
         sodipodi:ry="9"
         sodipodi:rx="9"
         sodipodi:cy="99"
         sodipodi:cx="286"
         cx="286"
         cy="99"
         r="9"
         id="circle2630"
         transform="translate(65.195981,-14.541367)"
         d="m 295,99 c 0,4.97056 -4.02944,9 -9,9 -4.97056,0 -9,-4.02944 -9,-9 0,-4.970563 4.02944,-9 9,-9 4.97056,0 9,4.029437 9,9 z" />
      <path
         style="fill:#000000;fill-opacity:1;stroke:none"
         d="m 387.4872,423.25081 0,38"
         id="path3442" />
      <circle
         transform="translate(89.172153,-14.541367)"
         id="circle3489"
         r="9"
         cy="99"
         cx="286"
         sodipodi:cx="286"
         sodipodi:cy="99"
         sodipodi:rx="9"
         sodipodi:ry="9"
         style="fill:#ffffff;stroke-linecap:round"
         d="m 295,99 c 0,4.97056 -4.02944,9 -9,9 -4.97056,0 -9,-4.02944 -9,-9 0,-4.970563 4.02944,-9 9,-9 4.97056,0 9,4.029437 9,9 z" />
      <path
         style="fill:#97c03d;fill-opacity:1;stroke:none"
         d="m 447.0888,109.1914 c 12.54092,0.17423 22.54914,10.49032 22.375,23.03124 l 0,97.125 c 7.4e-4,0.0522 -3.8e-4,0.10409 0,0.15625 3.1e-4,0.0526 0,0.10368 0,0.15625 1.7e-4,0.40666 -0.01,0.81546 -0.0312,1.21875 -0.16183,3.54974 -1.03172,7.07258 -2.625,10.25 -3.54683,7.07327 -10.08943,11.36582 -17.125,11.25 l -2.90625,0 -80.53125,0 c -5.26799,0.0851 -10.36836,-2.32005 -14.09375,-6.65625 -3.72539,-4.33621 -5.76065,-10.24327 -5.6875,-16.375 0.14968,-12.54091 9.00687,-22.54914 19.78125,-22.375 l 57.8125,0 0,-74.75 c -0.0851,-6.13172 2.32005,-12.0388 6.65625,-16.375 4.3362,-4.33619 10.24327,-6.74138 16.375,-6.65624 z"
         id="path3507" />
    </g>
  </g>
</svg>
