<?xml version="1.0" encoding="UTF-8" standalone="no"?>
<!-- Created with Inkscape (http://www.inkscape.org/) -->
<svg
   xmlns:dc="http://purl.org/dc/elements/1.1/"
   xmlns:cc="http://creativecommons.org/ns#"
   xmlns:rdf="http://www.w3.org/1999/02/22-rdf-syntax-ns#"
   xmlns:svg="http://www.w3.org/2000/svg"
   xmlns="http://www.w3.org/2000/svg"
   xmlns:sodipodi="http://sodipodi.sourceforge.net/DTD/sodipodi-0.dtd"
   xmlns:inkscape="http://www.inkscape.org/namespaces/inkscape"
   width="500"
   height="500"
   id="svg2"
   sodipodi:version="0.32"
   inkscape:version="0.46"
   sodipodi:docname="android-saguaro.svg"
   inkscape:output_extension="org.inkscape.output.svg.inkscape"
   version="1.0"
   inkscape:export-filename="/home/joakim/Pictures/phxandroid/android-saguaro.png"
   inkscape:export-xdpi="90"
   inkscape:export-ydpi="90">
  <defs
     id="defs4">
    <inkscape:perspective
       sodipodi:type="inkscape:persp3d"
       inkscape:vp_x="0 : 526.18109 : 1"
       inkscape:vp_y="0 : 1000 : 0"
       inkscape:vp_z="744.09448 : 526.18109 : 1"
       inkscape:persp3d-origin="372.04724 : 350.78739 : 1"
       id="perspective10" />
    <inkscape:perspective
       id="perspective2448"
       inkscape:persp3d-origin="250 : 166.66667 : 1"
       inkscape:vp_z="500 : 250 : 1"
       inkscape:vp_y="0 : 1000 : 0"
       inkscape:vp_x="0 : 250 : 1"
       sodipodi:type="inkscape:persp3d" />
  </defs>
  <sodipodi:namedview
     id="base"
     pagecolor="#ffffff"
     bordercolor="#666666"
     borderopacity="1.0"
     gridtolerance="10000"
     guidetolerance="10"
     objecttolerance="10"
     inkscape:pageopacity="0.0"
     inkscape:pageshadow="2"
     inkscape:zoom="1.3138044"
     inkscape:cx="192.01181"
     inkscape:cy="314.65164"
     inkscape:document-units="px"
     inkscape:current-layer="layer1"
     showgrid="false"
     inkscape:window-width="1600"
     inkscape:window-height="1151"
     inkscape:window-x="0"
     inkscape:window-y="24" />
  <metadata
     id="metadata7">
    <rdf:RDF>
      <cc:Work
         rdf:about="">
        <dc:format>image/svg+xml</dc:format>
        <dc:type
           rdf:resource="http://purl.org/dc/dcmitype/StillImage" />
      </cc:Work>
    </rdf:RDF>
  </metadata>
  <g
     inkscape:label="Layer 1"
     inkscape:groupmode="layer"
     id="layer1">
    <rect
       style="fill:#30587c;stroke:none;opacity:1"
       y="0"
       x="0"
       width="500"
       height="500"
       id="rect2385" />
    <g
       id="g3517"
       transform="translate(68.503348,0)">
      <path
         style="opacity:1;fill:#97c03d;stroke:#ffffff;stroke-width:15;stroke-linecap:round;stroke-miterlimit:4;stroke-dasharray:none;stroke-opacity:1"
         d="M 270.375,36.1875 C 269.42226,36.265932 268.56249,36.778959 268.0625,37.59375 C 267.56252,38.408541 267.48217,39.427553 267.84375,40.3125 L 276.0625,61.5625 C 266.0511,70.602065 259.40625,86.608754 259.40625,104.84375 C 259.40625,133.04224 275.31716,155.90624 294.9375,155.90625 C 314.55784,155.90625 330.5,133.04224 330.5,104.84375 C 330.5,86.608755 323.8239,70.602065 313.8125,61.5625 L 322.03125,40.3125 C 322.41465,39.366898 322.30644,38.302884 321.71875,37.46875 C 321.13107,36.634617 320.14447,36.144717 319.125,36.1875 C 317.92147,36.235333 316.86321,36.998262 316.4375,38.125 L 308.84375,57.8125 C 304.57585,55.203385 299.86555,53.75 294.9375,53.75 C 290.00975,53.75 285.33019,55.203687 281.0625,57.8125 L 273.4375,38.125 C 272.96605,36.86597 271.71463,36.074254 270.375,36.1875 z"
         id="path3491" />
      <path
         id="ellipse2403"
         d="M 270.375,36.1875 C 269.42226,36.265932 268.56249,36.778959 268.0625,37.59375 C 267.56252,38.408541 267.48217,39.427553 267.84375,40.3125 L 276.0625,61.5625 C 266.0511,70.602065 259.40625,86.608754 259.40625,104.84375 C 259.40625,133.04224 275.31716,155.90624 294.9375,155.90625 C 314.55784,155.90625 330.5,133.04224 330.5,104.84375 C 330.5,86.608755 323.8239,70.602065 313.8125,61.5625 L 322.03125,40.3125 C 322.41465,39.366898 322.30644,38.302884 321.71875,37.46875 C 321.13107,36.634617 320.14447,36.144717 319.125,36.1875 C 317.92147,36.235333 316.86321,36.998262 316.4375,38.125 L 308.84375,57.8125 C 304.57585,55.203385 299.86555,53.75 294.9375,53.75 C 290.00975,53.75 285.33019,55.203687 281.0625,57.8125 L 273.4375,38.125 C 272.96605,36.86597 271.71463,36.074254 270.375,36.1875 z"
         style="opacity:1;fill:#97c03d;stroke:none;stroke-width:11;stroke-linecap:round;stroke-miterlimit:4;stroke-dasharray:none;stroke-opacity:1" />
      <path
         style="fill:#97c03d;stroke:#ffffff;stroke-width:15;stroke-linecap:round;stroke-miterlimit:4;stroke-dasharray:none;stroke-opacity:1"
         d="M 259.4375,109.90625 L 259.4375,397.09375 C 259.4375,425.82895 257.94753,449.66321 269.3125,449.125 L 272.59375,449.125 L 272.59375,461.125 C 272.59375,467.98291 275.84971,473.50002 279.875,473.5 L 285.78125,473.5 C 289.80655,473.5 293.06251,467.9829 293.0625,461.125 L 293.0625,449.125 L 295.75,449.125 L 295.75,461.125 C 295.75,467.98291 298.97471,473.50002 303,473.5 L 308.9375,473.5 C 312.9628,473.5 316.18751,467.9829 316.1875,461.125 L 316.1875,449.125 L 320.5625,449.125 C 332.46569,449.6632 330.4375,425.82896 330.4375,397.09375 L 330.4375,109.90625 L 259.4375,109.90625 z"
         id="path3496" />
      <path
         id="path3509"
         d="M 378.58545,109.1914 C 391.12637,109.36563 401.13459,119.68172 400.96045,132.22264 L 400.96045,229.34764 C 400.96119,229.39984 400.96007,229.45173 400.96045,229.50389 C 400.96076,229.55646 400.96045,229.60757 400.96045,229.66014 C 400.96062,230.0668 400.95059,230.4756 400.9292,230.87889 C 400.76737,234.42863 399.89748,237.95147 398.3042,241.12889 C 394.75737,248.20216 388.21477,252.49471 381.1792,252.37889 L 378.27295,252.37889 L 297.7417,252.37889 C 292.47371,252.46402 287.37334,250.05884 283.64795,245.72264 C 279.92256,241.38643 277.8873,235.47937 277.96045,229.34764 C 278.11013,216.80673 286.96732,206.7985 297.7417,206.97264 L 355.5542,206.97264 L 355.5542,132.22264 C 355.46907,126.09092 357.87425,120.18384 362.21045,115.84764 C 366.54665,111.51145 372.45372,109.10626 378.58545,109.1914 z"
         style="fill:#97c03d;fill-opacity:1;stroke:#ffffff;stroke-width:15;stroke-linecap:round;stroke-miterlimit:4;stroke-dasharray:none;stroke-opacity:1" />
      <path
         style="fill:#97c03d;fill-opacity:1;stroke:#ffffff;stroke-width:15;stroke-linecap:round;stroke-miterlimit:4;stroke-dasharray:none;stroke-opacity:1"
         d="M 210.90085,157.90489 C 198.35993,158.07912 188.35171,168.39522 188.52585,180.93614 L 188.52585,278.06114 C 188.52511,278.11334 188.52623,278.16523 188.52585,278.21739 C 188.52554,278.26996 188.52585,278.32107 188.52585,278.37364 C 188.52568,278.7803 188.53571,279.1891 188.5571,279.59239 C 188.71893,283.14213 189.58882,286.66497 191.1821,289.84239 C 194.72893,296.91566 201.27153,301.20821 208.3071,301.09239 L 211.21335,301.09239 L 291.7446,301.09239 C 297.01259,301.17752 302.11296,298.77234 305.83835,294.43614 C 309.56374,290.09993 311.599,284.19287 311.52585,278.06114 C 311.37617,265.52023 302.51898,255.512 291.7446,255.68614 L 233.9321,255.68614 L 233.9321,180.93614 C 234.01723,174.80442 231.61205,168.89734 227.27585,164.56114 C 222.93965,160.22494 217.03258,157.81975 210.90085,157.90489 z"
         id="path3511" />
      <path
         id="path2405"
         d="M 259.4375,109.90625 L 259.4375,397.09375 C 259.4375,425.82895 257.94753,449.66321 269.3125,449.125 L 272.59375,449.125 L 272.59375,461.125 C 272.59375,467.98291 275.84971,473.50002 279.875,473.5 L 285.78125,473.5 C 289.80655,473.5 293.06251,467.9829 293.0625,461.125 L 293.0625,449.125 L 295.75,449.125 L 295.75,461.125 C 295.75,467.98291 298.97471,473.50002 303,473.5 L 308.9375,473.5 C 312.9628,473.5 316.18751,467.9829 316.1875,461.125 L 316.1875,449.125 L 320.5625,449.125 C 332.46569,449.6632 330.4375,425.82896 330.4375,397.09375 L 330.4375,109.90625 L 259.4375,109.90625 z"
         style="fill:#97c03d;stroke:none;stroke-width:11;stroke-linecap:round;stroke-miterlimit:4;stroke-dasharray:none;stroke-opacity:1" />
      <path
         id="path2423"
         d="M 210.90085,157.90489 C 198.35993,158.07912 188.35171,168.39522 188.52585,180.93614 L 188.52585,278.06114 C 188.52511,278.11334 188.52623,278.16523 188.52585,278.21739 C 188.52554,278.26996 188.52585,278.32107 188.52585,278.37364 C 188.52568,278.7803 188.53571,279.1891 188.5571,279.59239 C 188.71893,283.14213 189.58882,286.66497 191.1821,289.84239 C 194.72893,296.91566 201.27153,301.20821 208.3071,301.09239 L 211.21335,301.09239 L 291.7446,301.09239 C 297.01259,301.17752 302.11296,298.77234 305.83835,294.43614 C 309.56374,290.09993 311.599,284.19287 311.52585,278.06114 C 311.37617,265.52023 302.51898,255.512 291.7446,255.68614 L 233.9321,255.68614 L 233.9321,180.93614 C 234.01723,174.80442 231.61205,168.89734 227.27585,164.56114 C 222.93965,160.22494 217.03258,157.81975 210.90085,157.90489 z"
         style="fill:#97c03d;fill-opacity:1;stroke:none;stroke-width:36;stroke-linecap:round;stroke-opacity:1" />
      <circle
         style="fill:#ffffff;stroke-linecap:round"
         sodipodi:ry="9"
         sodipodi:rx="9"
         sodipodi:cy="99"
         sodipodi:cx="286"
         cx="286"
         cy="99"
         r="9"
         id="circle2630"
         transform="translate(-3.3073667,-14.541367)" />
      <path
         style="fill:#000000;fill-opacity:1;stroke:none;stroke-width:36;stroke-linecap:round"
         d="M 318.98385,423.25081 L 318.98385,461.25081"
         id="path3442" />
      <circle
         transform="translate(20.668805,-14.541367)"
         id="circle3489"
         r="9"
         cy="99"
         cx="286"
         sodipodi:cx="286"
         sodipodi:cy="99"
         sodipodi:rx="9"
         sodipodi:ry="9"
         style="fill:#ffffff;stroke-linecap:round" />
      <path
         style="fill:#97c03d;fill-opacity:1;stroke:none;stroke-width:36;stroke-linecap:round;stroke-opacity:1"
         d="M 378.58545,109.1914 C 391.12637,109.36563 401.13459,119.68172 400.96045,132.22264 L 400.96045,229.34764 C 400.96119,229.39984 400.96007,229.45173 400.96045,229.50389 C 400.96076,229.55646 400.96045,229.60757 400.96045,229.66014 C 400.96062,230.0668 400.95059,230.4756 400.9292,230.87889 C 400.76737,234.42863 399.89748,237.95147 398.3042,241.12889 C 394.75737,248.20216 388.21477,252.49471 381.1792,252.37889 L 378.27295,252.37889 L 297.7417,252.37889 C 292.47371,252.46402 287.37334,250.05884 283.64795,245.72264 C 279.92256,241.38643 277.8873,235.47937 277.96045,229.34764 C 278.11013,216.80673 286.96732,206.7985 297.7417,206.97264 L 355.5542,206.97264 L 355.5542,132.22264 C 355.46907,126.09092 357.87425,120.18384 362.21045,115.84764 C 366.54665,111.51145 372.45372,109.10626 378.58545,109.1914 z"
         id="path3507" />
    </g>
  </g>
</svg>
